<?xml version="1.0" encoding="UTF-8"?><svg id="Layer_2" xmlns="http://www.w3.org/2000/svg" viewBox="0 0 134.8 53.12"><defs><style>.cls-1,.cls-2{fill:#201934;}.cls-2{font-family:iAWriterMonoS-Regular, 'iA Writer Mono S';font-size:10px;}.cls-3{letter-spacing:-.03em;}.cls-4{letter-spacing:-.02em;}.cls-5{letter-spacing:-.02em;}.cls-6{letter-spacing:-.02em;}.cls-7{letter-spacing:-.04em;}.cls-8{letter-spacing:-.03em;}.cls-9{letter-spacing:-.03em;}.cls-10{letter-spacing:-.03em;}.cls-11{letter-spacing:0em;}</style></defs><g id="Layer_1-2"><path class="cls-1" d="M65.12,35.74l-5.76-17.74-.91-1.25-15.09-10.96-1.47-.48h-18.65l-1.47.48-15.09,10.96-.91,1.25L0,35.74l2.38,3.27h4.44c.89,4.78,4.71,9.29,11.53,10.07.28.03.56.05.84.05,4.97,0,9.55-4.99,11-10.12h4.74c1.45,5.13,6.03,10.12,11,10.12.28,0,.56-.02.84-.05,6.82-.78,10.64-5.3,11.53-10.07h4.44l2.38-3.27ZM25.63,36.44c-.2,1.75-1.23,3.9-2.62,5.47-1.36,1.55-2.86,2.35-4.09,2.21-5.25-.6-7.66-4.58-7.27-8.02.13-1.13,1.02-2.04,2.65-2.72,1.3-.54,2.97-.84,4.57-.84.47,0,.93.02,1.37.08,5.75.66,5.53,2.56,5.39,3.82ZM46.2,44.12c-1.23.14-2.72-.66-4.09-2.21-1.39-1.58-2.42-3.73-2.62-5.47-.14-1.26-.36-3.15,5.39-3.82.45-.05.91-.08,1.37-.08,1.61,0,3.27.3,4.57.84,1.63.68,2.52,1.59,2.65,2.72.4,3.44-2.02,7.41-7.27,8.02ZM58.08,34.02c-1.61-4.82-7.94-7.04-13.78-6.36-4.07.47-8.66,2-9.65,6.36h-4.19c-.99-4.36-5.58-5.89-9.65-6.36-5.83-.67-12.16,1.54-13.78,6.36h-1.22l4.45-13.7,13.78-10.01h17.03l13.78,10.01,4.45,13.7h-1.22Z"/><path class="cls-1" d="M76.51,3.08h11.77l-.02,3.53h-7.43v2.89h6.21v3.44h-6.21v6.2h-4.32V3.08Z"/><path class="cls-1" d="M88.15,15.75V7.66h4.33v7.49c0,.67.51,1.18,1.39,1.18s1.4-.51,1.4-1.18v-7.49h4.29v11.49h-3.2l-.51-2.35c-.42,2.29-2.24,2.58-3.35,2.58-1.86,0-4.34-1.31-4.34-3.62Z"/><path class="cls-1" d="M100.52,15.68V2.64h4.23v12.46c0,.56.13,1.11,1.3,1.27l.47.04v2.62c-.52.2-1.08.36-1.63.36-4.24,0-4.37-2.02-4.37-3.71Z"/><path class="cls-1" d="M106.74,15.68V2.64h4.23v12.46c0,.56.13,1.11,1.3,1.27l.47.04v2.62c-.52.2-1.08.36-1.63.36-4.24,0-4.37-2.02-4.37-3.71Z"/><path class="cls-1" d="M112.48,13.55c0-3.29,2.15-6.11,5.84-6.11s5.64,2.55,5.64,5.95v1h-7.24c-.02,1.38.73,1.96,1.67,1.96.79,0,1.44-.22,1.8-1.11h3.82c-.36,2.55-2.97,4.13-5.51,4.13-3.59,0-6.02-2.33-6.02-5.82ZM119.98,11.97c0-.87-.57-1.62-1.66-1.62-.89,0-1.62.76-1.62,1.62h3.28Z"/><path class="cls-1" d="M124.54,7.66h4.18v3.18c.52-1.84,1.72-3.4,3.85-3.4h.17v4.09s-.07-.01-.14-.02c-3.22-.33-3.73.93-3.73,2.13v5.51h-4.32V7.66Z"/><path class="cls-1" d="M76.51,22.58h4.32v6.09h5.54v-6.09h4.32v16.06h-4.32v-6.44h-5.54v6.44h-4.32v-16.06Z"/><path class="cls-1" d="M91.6,32.97c0-3.62,2.42-6.04,5.84-6.04s5.82,2.56,5.82,6.04-2.27,5.89-5.84,5.89-5.82-2.44-5.82-5.89ZM99.07,32.82c0-1.24-.24-2.8-1.62-2.8s-1.64,1.56-1.64,2.8.24,2.91,1.64,2.91,1.62-1.69,1.62-2.91Z"/><path class="cls-1" d="M103.73,27.15h4.25v1.59c.76-1.01,1.98-1.81,3.78-1.81,1.11,0,2.4.62,3.15,1.81.76-.98,2-1.81,3.46-1.81,1.78,0,3.77,1.23,3.77,4.07v7.64h-4.33v-7.05c0-.76-.72-1.19-1.38-1.19s-1.35.43-1.35,1.19v7.05h-4.31v-7.05c0-.76-.7-1.19-1.36-1.19s-1.35.43-1.35,1.19v7.05h-4.32v-11.49Z"/><path class="cls-1" d="M122.54,33.04c0-3.29,2.15-6.11,5.84-6.11s5.64,2.56,5.64,5.95v1h-7.24c-.02,1.38.73,1.96,1.67,1.96.79,0,1.44-.22,1.8-1.11h3.82c-.36,2.56-2.97,4.13-5.51,4.13-3.59,0-6.02-2.33-6.02-5.82ZM130.03,31.46c0-.87-.57-1.62-1.66-1.62-.89,0-1.62.76-1.62,1.62h3.28Z"/><text class="cls-2" transform="translate(76.06 50.61)"><tspan class="cls-9" x="0" y="0">E</tspan><tspan class="cls-10" x="5.71" y="0">x</tspan><tspan class="cls-5" x="11.4" y="0">p</tspan><tspan class="cls-7" x="17.24" y="0">e</tspan><tspan class="cls-4" x="22.82" y="0">r</tspan><tspan class="cls-6" x="28.62" y="0">i</tspan><tspan class="cls-11" x="34.47" y="0">m</tspan><tspan class="cls-3" x="40.42" y="0">e</tspan><tspan class="cls-9" x="46.15" y="0">n</tspan><tspan class="cls-8" x="51.86" y="0">t</tspan></text></g></svg>